<svg width="400" height="46" viewBox="0 0 400 46" fill="none" xmlns="http://www.w3.org/2000/svg">
<path d="M98.9861 0.673073C100.867 0.758543 102.59 0.801277 104.154 0.801277C105.719 0.801277 107.833 0.758543 110.496 0.673073L110.369 2.05127L106.152 3.30126C105.624 3.4722 105.296 3.83545 105.169 4.391C104.852 5.80125 104.493 7.57474 104.091 9.71148L99.1764 35.7049C98.7113 38.2263 98.3308 40.3523 98.0349 42.0831C97.9715 42.5745 98.1934 42.9057 98.7008 43.0767L102.347 44.2626L102.157 45.6408C99.3666 45.5767 96.7349 45.5446 94.2617 45.5446C91.7462 45.5446 89.273 45.5767 86.842 45.6408L86.9689 44.2626L90.7738 43.1408C91.3234 42.9912 91.6722 42.6173 91.8202 42.019C92.1795 40.331 92.5917 38.2263 93.0568 35.7049L98.3203 7.94867L75.5224 45.5446L73.6516 45.7049L65.0271 7.94867L59.7636 35.7049C59.2985 38.2263 58.9286 40.331 58.6538 42.019C58.5481 42.6173 58.7489 42.9912 59.2563 43.1408L62.5856 44.2626L62.3953 45.6408C59.901 45.5767 57.8083 45.5446 56.1172 45.5446C54.5952 45.5446 52.4708 45.5767 49.7439 45.6408L49.8708 44.2626L53.9611 43.0767C54.5741 42.9057 54.9334 42.5745 55.0391 42.0831C55.4196 40.3523 55.8424 38.2263 56.3074 35.7049L61.2221 9.71148C61.6238 7.57474 61.9303 5.80125 62.1417 4.391C62.2474 3.83545 62.0677 3.4722 61.6026 3.30126L57.8928 2.05127L58.0831 0.673073C60.7888 0.758543 62.9344 0.801277 64.5198 0.801277C66.2108 0.801277 67.8596 0.758543 69.4662 0.673073L77.6151 36.0575L98.9861 0.673073Z" fill="#838383"/>
<path d="M124.669 0.801277H131.645C136.38 0.801277 141.39 0.758543 146.675 0.673073L146.833 0.929482L143.25 10.8333L141.918 11.0576L141.316 3.58972H127.206L123.877 21.314H127.079C128.601 21.314 130.715 21.3033 133.421 21.2819C134.013 21.2392 134.425 20.9507 134.657 20.4165L136.623 16.0576L138.335 15.9935C137.68 19.0704 137.215 21.3247 136.94 22.7563C136.687 24.1452 136.317 26.2819 135.831 29.1665L134.118 29.2947L133.77 24.8717C133.727 24.3161 133.463 24.0276 132.977 24.0063C131.117 23.9635 128.971 23.9422 126.54 23.9422H123.369L121.182 35.6408C120.738 38.0126 120.315 40.3737 119.913 42.7241H134.721L139.794 34.519L141.348 34.2626L138.716 45.4164L138.494 45.6408C133.04 45.5767 127.988 45.5446 123.338 45.5446H116.394C113.836 45.5446 111.246 45.5767 108.625 45.6408L108.752 44.2626L112.716 43.0767C113.286 42.9271 113.646 42.5959 113.794 42.0831C113.963 41.2284 114.153 40.2775 114.364 39.2305C114.576 38.1622 114.808 36.987 115.062 35.7049L119.977 9.71148C120.188 8.62175 120.368 7.63884 120.516 6.76278C120.664 5.88672 120.791 5.09612 120.896 4.391C121.002 3.83545 120.822 3.4722 120.357 3.30126L116.521 2.05127L116.711 0.673073C119.501 0.758543 122.154 0.801277 124.669 0.801277Z" fill="#838383"/>
<path d="M161.926 45.5446C159.326 45.5446 156.419 45.5767 153.206 45.6408L153.524 44.2626L158.343 42.8523C158.914 42.7027 159.252 42.3715 159.358 41.8587C159.717 40.2348 160.14 38.1622 160.626 35.6408L166.651 3.58972H155.965L151.558 12.1794L150.194 12.4038L151.431 0.929482L151.684 0.673073C156.842 0.758543 161.799 0.801277 166.555 0.801277H174.229C178.985 0.801277 184.005 0.758543 189.29 0.673073L189.448 0.929482L185.453 12.1794L184.153 12.4038L183.551 3.58972H172.738L166.714 35.6408C166.228 38.1622 165.847 40.2348 165.572 41.8587C165.509 42.3715 165.731 42.7027 166.238 42.8523L170.804 44.2626L170.614 45.6408C167.253 45.5767 164.357 45.5446 161.926 45.5446Z" fill="#838383"/>
<path d="M190.146 44.1985L189.924 45.6408C187.261 45.5767 184.787 45.5446 182.504 45.5446C180.221 45.5446 178.15 45.5767 176.29 45.6408L176.417 44.2626L179.619 43.269C180.105 43.098 180.539 42.8844 180.919 42.628C181.321 42.3502 181.669 42.051 181.965 41.7305C182.282 41.41 182.557 41.0788 182.79 40.7369C183.022 40.3737 183.244 40.0211 183.456 39.6793L206.285 0.480766L209.393 0L216.083 39.1985C216.294 40.6515 216.58 41.6557 216.939 42.2113C217.298 42.7455 217.837 43.1301 218.556 43.3651L221.505 44.2626L221.315 45.6408C218.651 45.5767 216.051 45.5446 213.515 45.5446C211.041 45.5446 208.325 45.5767 205.366 45.6408L205.493 44.2626L208.505 43.3651C208.949 43.2156 209.308 43.0233 209.583 42.7882C209.879 42.5532 210.027 42.0938 210.027 41.41C210.027 40.7263 209.868 39.4442 209.551 37.5639L208.156 28.878H193.348L188.529 37.4677C187.852 38.6857 187.303 39.7113 186.88 40.5446C186.457 41.378 186.246 41.9762 186.246 42.3395C186.246 42.5532 186.331 42.7455 186.5 42.9164C186.669 43.066 186.944 43.2049 187.324 43.3331L190.146 44.1985ZM207.68 26.0575L204.827 8.39739L194.934 26.0575H207.68Z" fill="#838383"/>
<path d="M241.481 9.58328L236.598 35.6408C236.154 38.0126 235.731 40.3737 235.33 42.7241H250.391L255.781 34.1985L257.335 33.9421L254.64 45.4164L254.418 45.6408C249.619 45.5767 244.895 45.5446 240.244 45.5446H231.81C229.252 45.5446 226.663 45.5767 224.042 45.6408L224.168 44.2626L228.132 43.0767C228.703 42.9271 229.062 42.5959 229.21 42.0831C229.379 41.2284 229.569 40.2775 229.781 39.2305C229.992 38.1622 230.225 36.987 230.478 35.7049L235.393 9.71148C235.604 8.62175 235.784 7.63884 235.932 6.76278C236.08 5.88672 236.207 5.09612 236.313 4.391C236.418 3.83545 236.239 3.4722 235.774 3.30126L231.937 2.05127L232.127 0.673073C234.917 0.758543 237.57 0.801277 240.086 0.801277C242.559 0.801277 245.117 0.758543 247.759 0.673073L247.601 2.05127L243.574 3.23716C243.045 3.36537 242.718 3.69656 242.591 4.23074C242.4 4.9786 242.168 6.06834 241.893 7.49996C241.618 8.93157 241.481 9.62601 241.481 9.58328Z" fill="#838383"/>
<path d="M276.93 9.58328L272.047 35.6408C271.603 38.0126 271.181 40.3737 270.779 42.7241H285.84L291.23 34.1985L292.784 33.9421L290.089 45.4164L289.867 45.6408C285.069 45.5767 280.344 45.5446 275.694 45.5446H267.259C264.702 45.5446 262.112 45.5767 259.491 45.6408L259.618 44.2626L263.581 43.0767C264.152 42.9271 264.511 42.5959 264.659 42.0831C264.828 41.2284 265.019 40.2775 265.23 39.2305C265.441 38.1622 265.674 36.987 265.928 35.7049L270.842 9.71148C271.054 8.62175 271.233 7.63884 271.381 6.76278C271.529 5.88672 271.656 5.09612 271.762 4.391C271.868 3.83545 271.688 3.4722 271.223 3.30126L267.386 2.05127L267.576 0.673073C270.367 0.758543 273.02 0.801277 275.535 0.801277C278.008 0.801277 280.566 0.758543 283.208 0.673073L283.05 2.05127L279.023 3.23716C278.494 3.36537 278.167 3.69656 278.04 4.23074C277.85 4.9786 277.617 6.06834 277.342 7.49996C277.068 8.93157 276.93 9.62601 276.93 9.58328Z" fill="#838383"/>
<path d="M0 22.2969L7.29543 0.423342H10.8414L18.1369 22.2969H15.0995L13.1376 16.1858H4.86847L2.90655 22.2969H0ZM12.3383 13.7032L8.99576 3.39074L5.66777 13.7032H12.3383Z" fill="#838383"/>
<path d="M36.9422 22.2969H33.2073L26.3479 13.6003H23.0635V22.2969H20.186V0.423342H25.7665C27.0067 0.423342 28.0433 0.491895 28.8765 0.629003C29.7194 0.76611 30.5187 1.0844 31.2744 1.58386C32.0301 2.07353 32.626 2.7052 33.062 3.47888C33.5076 4.25256 33.7305 5.21231 33.7305 6.35814C33.7305 7.96425 33.3284 9.30595 32.5243 10.3832C31.7201 11.4605 30.6253 12.2587 29.2399 12.7777L36.9422 22.2969ZM30.7222 6.57849C30.7222 5.94192 30.6108 5.3788 30.388 4.88913C30.1651 4.38966 29.8212 3.98324 29.3561 3.66985C28.9492 3.39564 28.4745 3.20466 27.9319 3.09694C27.3894 2.97942 26.716 2.92066 25.9119 2.92066H23.0635V11.1765H25.5921C26.4157 11.1765 27.1568 11.103 27.8157 10.9561C28.4745 10.8092 29.0364 10.5056 29.5015 10.0453C29.9181 9.63403 30.2232 9.14436 30.417 8.57634C30.6205 8.00832 30.7222 7.34237 30.7222 6.57849Z" fill="#838383"/>
<path d="M43.729 22.2969V3.0088H36.4626V0.423342H53.8729V3.0088H46.6065V22.2969H43.729Z" fill="#838383"/>
<path d="M303.314 45.9412C301.744 45.9412 300.407 45.7796 299.303 45.4565C298.208 45.1235 297.176 44.7171 296.207 44.2372V40.594H296.411C297.36 41.495 298.436 42.1953 299.637 42.6947C300.838 43.1844 301.996 43.4292 303.11 43.4292C304.699 43.4292 305.901 43.0963 306.714 42.4303C307.528 41.7546 307.935 40.8683 307.935 39.7714C307.935 38.8998 307.722 38.1898 307.296 37.6413C306.869 37.0929 306.191 36.6865 305.261 36.4221C304.593 36.2262 303.982 36.0646 303.43 35.9373C302.878 35.81 302.185 35.6386 301.352 35.4231C300.606 35.2273 299.937 34.9775 299.346 34.6739C298.755 34.3703 298.232 33.9737 297.777 33.484C297.331 33.0042 296.982 32.4411 296.73 31.7947C296.488 31.1385 296.367 30.3844 296.367 29.5324C296.367 27.7598 297.05 26.2761 298.416 25.0813C299.782 23.8767 301.526 23.2744 303.648 23.2744C304.859 23.2744 306.002 23.3969 307.078 23.6417C308.163 23.8865 309.166 24.2342 310.086 24.6847V28.1662H309.868C309.18 27.5297 308.298 26.9763 307.223 26.5063C306.148 26.0264 305.019 25.7864 303.837 25.7864C302.5 25.7864 301.42 26.1047 300.596 26.7413C299.773 27.3681 299.361 28.1956 299.361 29.2239C299.361 30.1543 299.603 30.8937 300.087 31.4421C300.572 31.9906 301.274 32.3921 302.195 32.6467C302.805 32.8132 303.551 33.0042 304.433 33.2196C305.314 33.4253 306.046 33.6163 306.627 33.7925C308.119 34.2528 309.209 34.9482 309.897 35.8785C310.585 36.8089 310.929 37.9547 310.929 39.316C310.929 40.168 310.755 41.0103 310.406 41.8427C310.067 42.6751 309.587 43.3803 308.967 43.9581C308.269 44.5946 307.48 45.0843 306.598 45.4271C305.726 45.7699 304.631 45.9412 303.314 45.9412Z" fill="#838383"/>
<path d="M318.936 45.5446V26.2565H311.67V23.6711H329.08V26.2565H321.814V45.5446H318.936Z" fill="#838383"/>
<path d="M338.817 46C337.548 46 336.439 45.8335 335.489 45.5005C334.54 45.1578 333.731 44.6534 333.062 43.9875C332.307 43.2236 331.774 42.3128 331.464 41.2551C331.154 40.1876 330.999 38.8753 330.999 37.3182V23.6711H333.876V37.3182C333.876 38.3269 333.939 39.1789 334.065 39.8742C334.191 40.5598 334.438 41.1768 334.806 41.7252C335.194 42.3128 335.717 42.7584 336.376 43.062C337.044 43.3656 337.858 43.5174 338.817 43.5174C339.718 43.5174 340.518 43.3656 341.215 43.062C341.913 42.7584 342.455 42.3128 342.843 41.7252C343.201 41.167 343.443 40.55 343.569 39.8742C343.705 39.1985 343.773 38.3709 343.773 37.3916V23.6711H346.65V37.3182C346.65 38.8361 346.495 40.1387 346.185 41.2257C345.885 42.3128 345.352 43.2334 344.587 43.9875C343.899 44.6632 343.095 45.1676 342.174 45.5005C341.264 45.8335 340.145 46 338.817 46Z" fill="#838383"/>
<path d="M367.854 34.6299C367.854 36.6277 367.452 38.4297 366.647 40.0358C365.853 41.6419 364.782 42.8955 363.436 43.7965C362.341 44.4918 361.227 44.957 360.093 45.192C358.969 45.4271 357.531 45.5446 355.777 45.5446H350.792V23.6711H355.719C357.753 23.6711 359.347 23.8278 360.5 24.1412C361.663 24.4447 362.651 24.8659 363.465 25.4045C364.86 26.3349 365.94 27.5737 366.706 29.1211C367.471 30.6587 367.854 32.4949 367.854 34.6299ZM364.86 34.5858C364.86 32.9013 364.584 31.4666 364.032 30.2816C363.479 29.0868 362.661 28.1564 361.576 27.4905C360.81 27.0204 359.991 26.6825 359.119 26.4769C358.247 26.2712 357.162 26.1684 355.864 26.1684H353.67V43.0473H355.864C357.143 43.0473 358.262 42.9445 359.221 42.7388C360.18 42.5331 361.057 42.1512 361.852 41.593C362.85 40.9074 363.6 39.9967 364.104 38.8606C364.608 37.7148 364.86 36.2899 364.86 34.5858Z" fill="#838383"/>
<path d="M378.55 45.5446H370.15V43.3117H372.911V25.904H370.15V23.6711H378.55V25.904H375.789V43.3117H378.55V45.5446Z" fill="#838383"/>
<path d="M397.399 26.1831C398.222 27.1428 398.862 28.3327 399.317 29.7528C399.772 31.1728 400 32.7936 400 34.6152C400 36.3878 399.777 37.989 399.332 39.4188C398.886 40.8487 398.242 42.0484 397.399 43.0179C396.517 44.0364 395.485 44.7905 394.303 45.2802C393.131 45.7601 391.837 46 390.423 46C388.96 46 387.642 45.7503 386.47 45.2508C385.298 44.7513 384.29 44.007 383.447 43.0179C382.614 42.0484 381.975 40.8536 381.529 39.4335C381.083 38.0135 380.86 36.4074 380.86 34.6152C380.86 32.774 381.083 31.1581 381.529 29.7675C381.984 28.3768 382.629 27.182 383.462 26.1831C384.295 25.2135 385.298 24.479 386.47 23.9796C387.652 23.4703 388.97 23.2157 390.423 23.2157C391.896 23.2157 393.223 23.4752 394.405 23.9943C395.587 24.5133 396.585 25.2429 397.399 26.1831ZM397.006 34.6152C397.006 33.1658 396.851 31.8828 396.541 30.7664C396.231 29.6499 395.795 28.7245 395.233 27.99C394.662 27.2359 393.969 26.6727 393.155 26.3006C392.351 25.9187 391.445 25.7277 390.438 25.7277C389.391 25.7277 388.476 25.9138 387.691 26.2859C386.916 26.6483 386.228 27.2163 385.627 27.99C385.056 28.7343 384.615 29.6695 384.305 30.7958C384.004 31.922 383.854 33.1951 383.854 34.6152C383.854 37.4846 384.45 39.6833 385.642 41.211C386.833 42.729 388.432 43.488 390.438 43.488C392.443 43.488 394.037 42.729 395.219 41.211C396.41 39.6833 397.006 37.4846 397.006 34.6152Z" fill="#838383"/>
</svg>
