<svg width="437" height="50" viewBox="0 0 437 50" fill="none" xmlns="http://www.w3.org/2000/svg">
<path d="M108.142 0.731601C110.198 0.824503 112.08 0.870954 113.789 0.870954C115.498 0.870954 117.807 0.824503 120.717 0.731601L120.578 2.22964L115.971 3.58833C115.394 3.77413 115.036 4.16896 114.897 4.77283C114.551 6.3057 114.158 8.23342 113.719 10.556L108.35 38.8097C107.842 41.5503 107.426 43.8612 107.103 45.7425C107.034 46.2767 107.276 46.6367 107.831 46.8225L111.814 48.1115L111.606 49.6095C108.558 49.5398 105.683 49.505 102.981 49.505C100.233 49.505 97.5307 49.5398 94.8749 49.6095L95.0135 48.1115L99.1704 46.8921C99.7708 46.7296 100.152 46.3231 100.314 45.6728C100.706 43.838 101.156 41.5503 101.665 38.8097L107.415 8.63986L82.5082 49.505L80.4644 49.6792L71.0421 8.63986L65.2917 38.8097C64.7837 41.5503 64.3795 43.838 64.0793 45.6728C63.9638 46.3231 64.1832 46.7296 64.7375 46.8921L68.3747 48.1115L68.1669 49.6095C65.4418 49.5398 63.1555 49.505 61.308 49.505C59.6453 49.505 57.3243 49.5398 54.3452 49.6095L54.4838 48.1115L58.9525 46.8225C59.6222 46.6367 60.0148 46.2767 60.1302 45.7425C60.5459 43.8612 61.0078 41.5503 61.5159 38.8097L66.8852 10.556C67.324 8.23342 67.6588 6.3057 67.8898 4.77283C68.0052 4.16896 67.8089 3.77413 67.3009 3.58833L63.2479 2.22964L63.4558 0.731601C66.4118 0.824503 68.7558 0.870954 70.4878 0.870954C72.3353 0.870954 74.1367 0.824503 75.8918 0.731601L84.7945 39.1929L108.142 0.731601Z" fill="#CACACA"/>
<path d="M136.201 0.870954H143.822C148.995 0.870954 154.469 0.824503 160.242 0.731601L160.415 1.01031L156.501 11.7753L155.046 12.0192L154.388 3.90187H138.973L135.335 23.1674H138.834C140.497 23.1674 142.806 23.1558 145.762 23.1325C146.409 23.0861 146.859 22.7725 147.113 22.1919L149.261 17.4539L151.132 17.3842C150.416 20.7287 149.908 23.179 149.607 24.7351C149.33 26.2447 148.926 28.5673 148.395 31.7027L146.524 31.8421L146.143 27.0344C146.097 26.4305 145.808 26.117 145.277 26.0938C143.245 26.0473 140.901 26.0241 138.245 26.0241H134.781L132.391 38.74C131.906 41.318 131.444 43.8845 131.005 46.4393H147.182L152.725 37.5207L154.422 37.242L151.547 49.3657L151.305 49.6095C145.347 49.5398 139.827 49.505 134.746 49.505H127.16C124.366 49.505 121.537 49.5398 118.673 49.6095L118.812 48.1115L123.142 46.8225C123.765 46.6599 124.158 46.2999 124.32 45.7425C124.504 44.8135 124.712 43.7799 124.943 42.6419C125.174 41.4806 125.428 40.2032 125.705 38.8097L131.075 10.556C131.305 9.37146 131.502 8.30309 131.663 7.35085C131.825 6.39861 131.964 5.53927 132.079 4.77283C132.195 4.16896 131.998 3.77413 131.49 3.58833L127.299 2.22964L127.507 0.731601C130.555 0.824503 133.453 0.870954 136.201 0.870954Z" fill="#CACACA"/>
<path d="M176.904 49.505C174.064 49.505 170.888 49.5398 167.378 49.6095L167.724 48.1115L172.99 46.5786C173.613 46.416 173.983 46.056 174.098 45.4986C174.491 43.7335 174.953 41.4806 175.484 38.74L182.066 3.90187H170.392L165.577 13.2385L164.087 13.4824L165.438 1.01031L165.715 0.731601C171.35 0.824503 176.766 0.870954 181.962 0.870954H190.345C195.541 0.870954 201.026 0.824503 206.799 0.731601L206.972 1.01031L202.608 13.2385L201.187 13.4824L200.529 3.90187H188.717L182.135 38.74C181.604 41.4806 181.188 43.7335 180.888 45.4986C180.819 46.056 181.061 46.416 181.615 46.5786L186.604 48.1115L186.396 49.6095C182.724 49.5398 179.56 49.505 176.904 49.505Z" fill="#CACACA"/>
<path d="M207.735 48.0418L207.492 49.6095C204.582 49.5398 201.88 49.505 199.386 49.505C196.892 49.505 194.629 49.5398 192.596 49.6095L192.735 48.1115L196.234 47.0315C196.765 46.8457 197.238 46.6134 197.654 46.3347C198.093 46.0328 198.474 45.7076 198.797 45.3593C199.144 45.0109 199.444 44.6509 199.698 44.2793C199.952 43.8845 200.194 43.5012 200.425 43.1296L225.367 0.522572L228.761 0L236.071 42.6071C236.302 44.1864 236.613 45.278 237.006 45.8818C237.399 46.4625 237.987 46.8805 238.773 47.136L241.994 48.1115L241.786 49.6095C238.877 49.5398 236.036 49.505 233.265 49.505C230.563 49.505 227.595 49.5398 224.362 49.6095L224.501 48.1115L227.792 47.136C228.276 46.9734 228.669 46.7644 228.969 46.5089C229.293 46.2534 229.454 45.7541 229.454 45.0109C229.454 44.2677 229.281 42.8741 228.935 40.8303L227.41 31.3892H211.233L205.968 40.7258C205.229 42.0496 204.628 43.1645 204.167 44.0703C203.705 44.976 203.474 45.6264 203.474 46.0212C203.474 46.2534 203.566 46.4625 203.751 46.6483C203.936 46.8109 204.236 46.9618 204.651 47.1012L207.735 48.0418ZM226.891 28.3234L223.773 9.12759L212.965 28.3234H226.891Z" fill="#CACACA"/>
<path d="M263.818 10.4166L258.483 38.74C257.998 41.318 257.536 43.8845 257.098 46.4393H273.552L279.441 37.1723L281.138 36.8936L278.194 49.3657L277.951 49.6095C272.709 49.5398 267.548 49.505 262.467 49.505H253.252C250.458 49.505 247.629 49.5398 244.765 49.6095L244.904 48.1115L249.234 46.8225C249.858 46.6599 250.25 46.2999 250.412 45.7425C250.597 44.8135 250.805 43.7799 251.035 42.6419C251.266 41.4806 251.52 40.2032 251.798 38.8097L257.167 10.556C257.398 9.37146 257.594 8.30309 257.756 7.35085C257.917 6.39861 258.056 5.53927 258.171 4.77283C258.287 4.16896 258.091 3.77413 257.583 3.58833L253.391 2.22964L253.599 0.731601C256.647 0.824503 259.546 0.870954 262.294 0.870954C264.996 0.870954 267.79 0.824503 270.677 0.731601L270.504 2.22964L266.104 3.51865C265.527 3.65801 265.169 4.018 265.03 4.59864C264.822 5.41153 264.568 6.59602 264.268 8.15213C263.968 9.70823 263.818 10.4631 263.818 10.4166Z" fill="#CACACA"/>
<path d="M302.546 10.4166L297.212 38.74C296.727 41.318 296.265 43.8845 295.826 46.4393H312.28L318.169 37.1723L319.867 36.8936L316.922 49.3657L316.68 49.6095C311.437 49.5398 306.276 49.505 301.195 49.505H291.981C289.186 49.505 286.357 49.5398 283.494 49.6095L283.632 48.1115L287.962 46.8225C288.586 46.6599 288.979 46.2999 289.14 45.7425C289.325 44.8135 289.533 43.7799 289.764 42.6419C289.995 41.4806 290.249 40.2032 290.526 38.8097L295.895 10.556C296.126 9.37146 296.322 8.30309 296.484 7.35085C296.646 6.39861 296.784 5.53927 296.9 4.77283C297.015 4.16896 296.819 3.77413 296.311 3.58833L292.119 2.22964L292.327 0.731601C295.376 0.824503 298.274 0.870954 301.022 0.870954C303.724 0.870954 306.518 0.824503 309.405 0.731601L309.232 2.22964L304.833 3.51865C304.255 3.65801 303.897 4.018 303.759 4.59864C303.551 5.41153 303.297 6.59602 302.997 8.15213C302.696 9.70823 302.546 10.4631 302.546 10.4166Z" fill="#CACACA"/>
<path d="M0 24.2357L7.97026 0.460154H11.8443L19.8145 24.2357H16.4962L14.3528 17.5933H5.3188L3.1754 24.2357H0ZM13.4796 14.8948L9.82787 3.68559L6.19204 14.8948H13.4796Z" fill="#CACACA"/>
<path d="M40.3594 24.2357H36.279L28.785 14.783H25.1968V24.2357H22.0532V0.460154H28.1499C29.5048 0.460154 30.6373 0.534669 31.5476 0.683699C32.4685 0.832729 33.3417 1.17869 34.1673 1.72159C34.9929 2.25383 35.6439 2.94044 36.1202 3.78139C36.6071 4.62234 36.8505 5.66555 36.8505 6.91102C36.8505 8.6568 36.4113 10.1152 35.5328 11.2861C34.6542 12.4571 33.4582 13.3246 31.9445 13.8888L40.3594 24.2357ZM33.564 7.15053C33.564 6.45861 33.4423 5.84652 33.1988 5.31427C32.9554 4.77137 32.5796 4.32961 32.0716 3.98897C31.627 3.69091 31.1084 3.48333 30.5156 3.36624C29.9229 3.2385 29.1872 3.17463 28.3087 3.17463H25.1968V12.1484H27.9594C28.8591 12.1484 29.6688 12.0685 30.3886 11.9088C31.1084 11.7492 31.7223 11.4192 32.2303 10.9189C32.6855 10.4718 33.0189 9.93952 33.2306 9.32211C33.4529 8.7047 33.564 7.98084 33.564 7.15053Z" fill="#CACACA"/>
<path d="M47.7739 24.2357V3.27043H39.8354V0.460154H58.8561V3.27043H50.9176V24.2357H47.7739Z" fill="#CACACA"/>
<path d="M331.37 49.9361C329.656 49.9361 328.195 49.7605 326.988 49.4092C325.792 49.0473 324.665 48.6055 323.606 48.0839V44.124H323.829C324.866 45.1033 326.041 45.8644 327.353 46.4073C328.666 46.9396 329.931 47.2057 331.148 47.2057C332.884 47.2057 334.196 46.8438 335.085 46.1199C335.975 45.3854 336.419 44.422 336.419 43.2298C336.419 42.2824 336.186 41.5106 335.721 40.9145C335.255 40.3184 334.514 39.8766 333.498 39.5892C332.767 39.3763 332.101 39.2007 331.497 39.0623C330.894 38.9239 330.137 38.7376 329.227 38.5034C328.412 38.2905 327.681 38.0191 327.036 37.6891C326.39 37.3591 325.819 36.928 325.321 36.3957C324.834 35.8741 324.453 35.262 324.178 34.5594C323.913 33.8462 323.781 33.0266 323.781 32.1004C323.781 30.1737 324.527 28.561 326.02 27.2623C327.512 25.953 329.417 25.2983 331.735 25.2983C333.059 25.2983 334.307 25.4314 335.482 25.6975C336.668 25.9636 337.763 26.3415 338.769 26.8312V30.6155H338.531C337.779 29.9235 336.816 29.3221 335.641 28.8111C334.466 28.2895 333.233 28.0287 331.942 28.0287C330.481 28.0287 329.301 28.3747 328.401 29.0666C327.502 29.7479 327.052 30.6474 327.052 31.7651C327.052 32.7764 327.316 33.5801 327.846 34.1762C328.375 34.7723 329.142 35.2088 330.148 35.4856C330.815 35.6665 331.63 35.8741 332.593 36.1083C333.556 36.3318 334.355 36.5394 334.99 36.731C336.62 37.2313 337.811 37.9871 338.563 38.9984C339.314 40.0097 339.69 41.2551 339.69 42.7348C339.69 43.6609 339.499 44.5764 339.118 45.4812C338.748 46.386 338.224 47.1525 337.546 47.7805C336.784 48.4724 335.922 49.0047 334.958 49.3773C334.006 49.7498 332.81 49.9361 331.37 49.9361Z" fill="#CACACA"/>
<path d="M348.438 49.505V28.5397H340.5V25.7294H359.52V28.5397H351.582V49.505H348.438Z" fill="#CACACA"/>
<path d="M370.158 50C368.771 50 367.559 49.819 366.522 49.4571C365.485 49.0845 364.601 48.5363 363.871 47.8125C363.045 46.9821 362.463 45.9922 362.124 44.8425C361.785 43.6822 361.616 42.2558 361.616 40.5632V25.7294H364.76V40.5632C364.76 41.6596 364.828 42.5858 364.966 43.3416C365.104 44.0867 365.374 44.7573 365.776 45.3535C366.199 45.9922 366.771 46.4765 367.49 46.8065C368.221 47.1365 369.11 47.3015 370.158 47.3015C371.142 47.3015 372.015 47.1365 372.777 46.8065C373.54 46.4765 374.132 45.9922 374.556 45.3535C374.947 44.7467 375.212 44.0761 375.35 43.3416C375.498 42.6071 375.572 41.7076 375.572 40.6431V25.7294H378.715V40.5632C378.715 42.2132 378.546 43.629 378.207 44.8106C377.879 45.9922 377.297 46.9928 376.461 47.8125C375.709 48.547 374.831 49.0952 373.825 49.4571C372.83 49.819 371.608 50 370.158 50Z" fill="#CACACA"/>
<path d="M401.88 37.6412C401.88 39.8127 401.441 41.7714 400.562 43.5172C399.694 45.263 398.525 46.6255 397.053 47.6049C395.857 48.3607 394.64 48.8663 393.402 49.1218C392.174 49.3773 390.602 49.505 388.686 49.505H383.24V25.7294H388.623C390.846 25.7294 392.587 25.8997 393.846 26.2404C395.116 26.5704 396.196 27.0281 397.085 27.6136C398.609 28.6249 399.79 29.9715 400.626 31.6534C401.462 33.3246 401.88 35.3206 401.88 37.6412ZM398.609 37.5933C398.609 35.7623 398.308 34.2028 397.704 32.9148C397.101 31.6161 396.207 30.6048 395.021 29.881C394.185 29.37 393.291 29.0028 392.338 28.7792C391.385 28.5557 390.2 28.4439 388.782 28.4439H386.384V46.7905H388.782C390.179 46.7905 391.401 46.6788 392.449 46.4552C393.497 46.2317 394.455 45.8165 395.323 45.2098C396.413 44.4646 397.233 43.4746 397.784 42.2398C398.334 40.9943 398.609 39.4455 398.609 37.5933Z" fill="#CACACA"/>
<path d="M413.566 49.505H404.389V47.078H407.405V28.1565H404.389V25.7294H413.566V28.1565H410.549V47.078H413.566V49.505Z" fill="#CACACA"/>
<path d="M434.158 28.4599C435.058 29.5031 435.756 30.7964 436.254 32.34C436.751 33.8835 437 35.6452 437 37.6252C437 39.5519 436.757 41.2924 436.27 42.8466C435.783 44.4007 435.079 45.7047 434.158 46.7586C433.195 47.8657 432.068 48.6853 430.776 49.2176C429.495 49.7392 428.082 50 426.537 50C424.939 50 423.499 49.7285 422.219 49.1857C420.938 48.6428 419.837 47.8337 418.916 46.7586C418.006 45.7047 417.307 44.4061 416.82 42.8625C416.333 41.319 416.09 39.5732 416.09 37.6252C416.09 35.6239 416.333 33.8675 416.82 32.3559C417.318 30.8443 418.022 29.5457 418.932 28.4599C419.842 27.406 420.938 26.6076 422.219 26.0647C423.51 25.5112 424.949 25.2344 426.537 25.2344C428.146 25.2344 429.596 25.5165 430.887 26.0807C432.179 26.6449 433.269 27.4379 434.158 28.4599ZM433.729 37.6252C433.729 36.0497 433.56 34.6552 433.221 33.4417C432.883 32.2282 432.406 31.2222 431.792 30.4239C431.168 29.6042 430.411 28.9921 429.522 28.5876C428.643 28.1724 427.654 27.9649 426.553 27.9649C425.41 27.9649 424.41 28.1671 423.552 28.5716C422.705 28.9655 421.954 29.5829 421.298 30.4239C420.673 31.2329 420.192 32.2495 419.853 33.4737C419.525 34.6978 419.361 36.0817 419.361 37.6252C419.361 40.7442 420.012 43.134 421.314 44.7946C422.615 46.4446 424.362 47.2696 426.553 47.2696C428.744 47.2696 430.485 46.4446 431.776 44.7946C433.078 43.134 433.729 40.7442 433.729 37.6252Z" fill="#CACACA"/>
</svg>
